<svg width="132" height="35" viewBox="0 0 132 35" fill="none" xmlns="http://www.w3.org/2000/svg">
<path d="M39.012 34.3134H42.8816V0H39.012V34.3134ZM76.1678 9.90294C72.0995 9.90294 69.9913 11.7662 68.9135 14.1184H68.2269C67.148 11.7662 64.8936 9.90294 61.1681 9.90294C57.3943 9.90294 55.4333 11.619 54.5016 13.334H53.815V10.3487H50.0412V34.3134H53.9138V19.9016C53.9138 15.5884 56.4133 13.2351 59.9431 13.2351C63.2764 13.2351 65.2364 15.2446 65.2364 18.4306V34.3134H69.1091V19.9016C69.1091 15.5884 71.6085 13.2351 75.1384 13.2351C78.4716 13.2351 80.4326 15.2446 80.4326 18.4306V34.3134H84.3043V18.0888C84.3043 12.9912 80.9226 9.90294 76.1678 9.90294ZM101.953 9.65794C94.9423 9.65794 90.0412 14.6578 90.0412 22.0593V22.6471C90.0412 30.0485 94.8939 35 102.198 35C108.619 35 111.462 31.4218 112.932 28.3829L109.599 26.7647C108.422 29.4124 106.413 31.569 102.295 31.569C97.5405 31.569 94.1095 28.4807 93.9571 23.3337H113.467V21.5693C113.472 14.2656 108.764 9.65794 101.953 9.65794ZM94.0117 20.1476C94.5995 15.6872 97.5899 13.089 101.953 13.089C106.266 13.089 109.261 15.6872 109.55 20.1476H94.0117ZM129.158 10.2457C126.266 10.2457 124.55 11.1774 123.717 13.2856H123.031V10.3446H119.256V34.3134H123.129V19.706C123.129 15.6913 125.433 13.7756 128.913 13.7756H132.001V10.2457H129.158ZM13.4403 15.1149H8.97262L0.00537109 34.3134H4.13024L10.8431 19.9418H11.5287L18.2415 34.3134H22.3653L13.3991 15.1149H13.4403ZM13.3919 0L29.4179 34.3134H33.5417L17.5157 0H13.3919Z" fill="#7F7F7F"/>
</svg>
